<?xml version="1.0" encoding="UTF-8"?>
<svg version="1.1" xmlns="http://www.w3.org/2000/svg" width="274" height="575">
<path d="M0 0 C0.80364412 -0.00453111 1.60728824 -0.00906223 2.43528521 -0.01373065 C5.13136371 -0.02640293 7.82724094 -0.02475246 10.52334595 -0.02310181 C12.45506552 -0.02908528 14.38678269 -0.0358904 16.3184967 -0.04345703 C21.56850803 -0.06114235 26.81845418 -0.06581347 32.06849241 -0.0670886 C36.44976829 -0.06898673 40.83102896 -0.07634324 45.21229899 -0.08343279 C55.54824825 -0.09972386 65.88416267 -0.10460108 76.22012329 -0.10317993 C86.88563892 -0.10197819 97.55095228 -0.12308494 108.21641672 -0.15466726 C117.37066519 -0.18080959 126.52484753 -0.19154809 135.67913306 -0.19026911 C141.14774725 -0.18975889 146.61618172 -0.19547527 152.08475876 -0.21662521 C157.22792497 -0.23597321 162.37073939 -0.23615556 167.51391792 -0.22159195 C169.40132345 -0.21949851 171.2887508 -0.22423654 173.17611885 -0.23631287 C175.75348803 -0.25173576 178.3296397 -0.24247729 180.90698242 -0.22705078 C181.65329371 -0.23733791 182.399605 -0.24762503 183.16853178 -0.25822389 C188.2359295 -0.19123052 191.20964109 1.01094335 195.08047485 4.26742554 C195.08047485 4.92742554 195.08047485 5.58742554 195.08047485 6.26742554 C196.07047485 6.59742554 197.06047485 6.92742554 198.08047485 7.26742554 C199.74437964 8.37790012 199.74437964 8.37790012 201.08047485 10.26742554 C201.37441774 12.76127563 201.48312649 15.00553097 201.45799828 17.49983215 C201.4623586 18.24527932 201.46671892 18.99072648 201.47121137 19.75876296 C201.48222961 22.27672433 201.47171538 24.79414517 201.46142578 27.31210327 C201.46487976 29.12746939 201.46964256 30.94283341 201.47560751 32.75819302 C201.48818295 37.76237221 201.48191752 42.76638076 201.47264886 47.77056074 C201.46588538 53.16122082 201.47632613 58.55185072 201.48458862 63.94250488 C201.49795711 74.50898853 201.49503437 85.07540839 201.4863507 95.64189458 C201.47958679 104.22637663 201.47865182 112.81084076 201.48192215 121.39532471 C201.48238185 122.61521101 201.48284155 123.83509732 201.48331518 125.09194988 C201.48427431 127.56980809 201.48524695 130.0476663 201.48623295 132.5255245 C201.49479597 155.78276042 201.48493842 179.03996091 201.46883185 202.29719102 C201.45542785 222.27069405 201.45775568 242.24411763 201.47158813 262.21762085 C201.48762785 285.38931293 201.49397192 308.56097393 201.48475134 331.73267078 C201.48379565 334.20162264 201.48285254 336.6705745 201.48192215 339.13952637 C201.48145932 340.35442779 201.4809965 341.5693292 201.48051964 342.82104582 C201.47792492 351.39927981 201.48231111 359.97749415 201.48936081 368.5557251 C201.49775817 379.00389826 201.49553294 389.45200377 201.47951858 399.90016913 C201.47161203 405.23515152 201.46858467 410.57002094 201.47846603 415.90500259 C201.4873643 420.78283406 201.48256101 425.66044719 201.46653338 430.53825867 C201.46316481 432.30873336 201.46492577 434.07922626 201.47216074 435.84968936 C201.48120326 438.24506636 201.47200925 440.63968256 201.45799828 443.03501892 C201.46502177 443.73219233 201.47204527 444.42936574 201.4792816 445.14766562 C201.44600427 447.9686162 201.41240181 449.81537561 199.71312964 452.1296072 C198.08047485 453.26742554 198.08047485 453.26742554 195.58047485 454.70492554 C192.98595762 456.04852531 192.98595762 456.04852531 191.91894817 458.33501816 C190.08047485 460.26742554 190.08047485 460.26742554 186.60347462 460.75961685 C185.12404161 460.77646899 183.64425939 460.77095854 182.16490173 460.7484436 C180.94211644 460.75357015 180.94211644 460.75357015 179.69462842 460.75880027 C176.95350533 460.76540727 174.21335394 460.74335707 171.47232056 460.7215271 C169.51131208 460.72039923 167.55030192 460.7210313 165.58929443 460.72329712 C160.25685041 460.72444755 154.92476429 460.70088492 149.59240365 460.67300129 C144.02303128 460.64804247 138.45365124 460.64565 132.88423157 460.64089966 C122.33383545 460.62845364 111.78360458 460.59560999 101.23328131 460.5555017 C89.22379002 460.51083459 77.21429095 460.48880968 65.20473731 460.46871996 C40.49655811 460.42687881 15.78852573 460.35649515 -8.91952515 460.26742554 C-8.91952515 459.27742554 -8.91952515 458.28742554 -8.91952515 457.26742554 C-9.90952515 456.93742554 -10.89952515 456.60742554 -11.91952515 456.26742554 C-12.39390015 455.58680054 -12.86827515 454.90617554 -13.35702515 454.20492554 C-13.87265015 453.56555054 -14.38827515 452.92617554 -14.91952515 452.26742554 C-16.23952515 452.26742554 -17.55952515 452.26742554 -18.91952515 452.26742554 C-19.03387982 396.02735209 -19.12202788 339.78729017 -19.17485179 283.54712339 C-19.1811056 276.91287496 -19.18757718 270.27862675 -19.19418335 263.64437866 C-19.19483714 262.98418123 -19.19549094 262.32398379 -19.19616455 261.64378038 C-19.21814465 239.56849806 -19.25793897 217.4932875 -19.30528913 195.41804639 C-19.35198753 173.46415033 -19.37980652 151.51028939 -19.38996762 129.5563457 C-19.39684051 116.00111692 -19.41857567 102.44607716 -19.45910748 88.89090654 C-19.48546418 79.60537763 -19.49354222 70.31994696 -19.48703203 61.03438333 C-19.48381812 55.67085224 -19.48886821 50.30765228 -19.51555252 44.94417953 C-19.53977983 40.03893902 -19.54118152 35.13425415 -19.52401962 30.22898874 C-19.52189675 28.44964499 -19.5283283 26.67026739 -19.54394106 24.89099088 C-19.56386894 22.48080302 -19.55328226 20.07264808 -19.53476429 17.66249466 C-19.54789936 16.96388203 -19.56103443 16.2652694 -19.57456753 15.54548669 C-19.54051763 13.59833646 -19.54051763 13.59833646 -18.91952515 10.26742554 C-16.44747895 7.93804622 -16.44747895 7.93804622 -13.91952515 6.26742554 C-13.56890015 5.56617554 -13.21827515 4.86492554 -12.85702515 4.14242554 C-10.3964862 -0.77865236 -4.80791176 -0.01983434 0 0 Z " fill="#3B093C" transform="translate(45.919525146484375,57.732574462890625)"/>
<path d="M0 0 C1.15680267 -0.01226624 1.15680267 -0.01226624 2.3369751 -0.02478027 C4.89269241 -0.04961385 7.44835393 -0.06615209 10.00415039 -0.08056641 C10.88005892 -0.08589008 11.75596745 -0.09121376 12.65841866 -0.09669876 C17.30172983 -0.12343155 21.94501421 -0.14279921 26.58837891 -0.15722656 C30.41479638 -0.17052118 34.24067492 -0.19829011 38.06689453 -0.23925781 C42.6999578 -0.28885828 47.33253534 -0.31338196 51.96585274 -0.32045364 C53.72274642 -0.32712472 55.47963105 -0.34223727 57.23637199 -0.36634445 C72.00541253 -0.55732252 83.17863746 1.86820212 94.41430664 12.19287109 C95.04079102 12.76521484 95.66727539 13.33755859 96.31274414 13.92724609 C107.92614372 25.79421335 108.28599339 39.77729764 108.15893555 55.35986328 C108.16380053 57.46391009 108.17124802 59.56795226 108.18106079 61.67198181 C108.19975684 67.34751367 108.18113454 73.02234836 108.15439653 78.69782543 C108.1316453 84.65485327 108.13999164 90.61184985 108.14389038 96.56890869 C108.14565195 106.56525977 108.12358182 116.56133845 108.08666992 126.55761719 C108.04429477 138.09920282 108.0373273 149.64039037 108.04979384 161.18203807 C108.06119743 172.31144743 108.04987364 183.44071727 108.02744675 194.57010651 C108.01818106 199.29555096 108.01639557 204.02090973 108.02061844 208.74636078 C108.02439619 214.3116026 108.00808527 219.87644134 107.97649765 225.44159126 C107.96804167 227.47888331 107.96629081 229.51621636 107.97187805 231.5535183 C108.01770535 251.25818236 108.01770535 251.25818236 103.41430664 259.19287109 C102.9102832 260.10681641 102.40625977 261.02076172 101.88696289 261.96240234 C99.02549896 266.10795812 96.21736779 269.84255532 92.41430664 273.19287109 C91.64086914 273.91410156 91.64086914 273.91410156 90.85180664 274.64990234 C79.92407606 283.95260402 66.13880544 284.96204505 52.47290039 284.85693359 C50.89119598 284.86031581 49.30949414 284.86517998 47.72779846 284.87142944 C44.4392075 284.87873281 41.15130305 284.86830896 37.86279297 284.84472656 C33.68831287 284.81621792 29.51543941 284.83269636 25.34101772 284.86258888 C22.08315843 284.88082116 18.82566828 284.87483232 15.56779671 284.86194992 C14.03031273 284.85866085 12.49279304 284.8625406 10.95535088 284.87434769 C-2.01052299 284.95213261 -12.73574769 282.79702646 -23.58569336 275.19287109 C-24.39006836 274.65662109 -25.19444336 274.12037109 -26.02319336 273.56787109 C-35.46337647 264.81843309 -40.57649681 252.86469357 -41.1602509 240.11029327 C-41.26835571 235.52207485 -41.25812471 230.93800054 -41.23266602 226.34887695 C-41.23945423 224.27925348 -41.24836407 222.20963606 -41.25921631 220.14002991 C-41.2818715 214.55736674 -41.2732308 208.97516929 -41.25732088 203.39249873 C-41.24459187 197.52895218 -41.25642119 191.66544339 -41.26425171 185.80189514 C-41.27332723 175.95941059 -41.2614147 166.11711414 -41.23754883 156.2746582 C-41.2103342 144.92054329 -41.2191629 133.56687733 -41.24668086 122.21277326 C-41.26942169 112.4356844 -41.27254791 102.65873012 -41.25948751 92.88162333 C-41.25172133 87.0546687 -41.25057335 81.22792463 -41.26716995 75.40098381 C-41.28168819 69.92186685 -41.27145895 64.44332493 -41.24269867 58.96426964 C-41.23612737 56.96209413 -41.23791712 54.95986963 -41.24901199 52.95771408 C-41.33366843 36.11942567 -38.86991994 23.77705429 -26.71069336 11.26318359 C-19.05244956 4.06814002 -10.48271727 0.0613597 0 0 Z " fill="#BF2A7B" transform="translate(103.585693359375,144.80712890625)"/>
<path d="M0 0 C1.98 0 3.96 0 6 0 C6.33 1.65 6.66 3.3 7 5 C7.99 4.34 8.98 3.68 10 3 C14.54054054 3.54054054 14.54054054 3.54054054 16 5 C16.33 4.34 16.66 3.68 17 3 C23.66666667 3 30.33333333 3 37 3 C38.2684375 2.9071875 38.2684375 2.9071875 39.5625 2.8125 C42 3 42 3 43.8125 4.5 C44.4003125 5.2425 44.4003125 5.2425 45 6 C45.33 5.01 45.66 4.02 46 3 C47.65 3 49.3 3 51 3 C51.495 4.485 51.495 4.485 52 6 C50.35 6 48.7 6 47 6 C47 6.99 47 7.98 47 9 C48.65 9 50.3 9 52 9 C51.67 9.99 51.34 10.98 51 12 C49.35 12 47.7 12 46 12 C45.505 10.515 45.505 10.515 45 9 C44.01 9.66 43.02 10.32 42 11 C39.66708189 11.04401732 37.33299825 11.03954234 35 11 C32.9935269 11.29185063 30.99005807 11.61169599 29 12 C29 12.66 29 13.32 29 14 C27.68 14 26.36 14 25 14 C25 13.34 25 12.68 25 12 C24.01 12 23.02 12 22 12 C22 10.02 22 8.04 22 6 C21.34 6 20.68 6 20 6 C20 7.98 20 9.96 20 12 C19.01 12 18.02 12 17 12 C16.67 11.34 16.34 10.68 16 10 C15.34 10.66 14.68 11.32 14 12 C11.66055264 11.71269945 9.3260857 11.38063221 7 11 C6.67 11.33 6.34 11.66 6 12 C4.02 12 2.04 12 0 12 C0 8.04 0 4.08 0 0 Z " fill="#EABCD5" transform="translate(105,282)"/>
<path d="M0 0 C2.98223969 1.26171679 4.89377965 2.87819952 7.25 5.09375 C8.04019531 5.82722656 8.83039063 6.56070313 9.64453125 7.31640625 C10.23621094 7.88230469 10.82789063 8.44820312 11.4375 9.03125 C10.1175 9.36125 8.7975 9.69125 7.4375 10.03125 C7.4375 14.32125 7.4375 18.61125 7.4375 23.03125 C5.4575 23.03125 3.4775 23.03125 1.4375 23.03125 C1.4375 20.06125 1.4375 17.09125 1.4375 14.03125 C-0.5425 14.03125 -2.5225 14.03125 -4.5625 14.03125 C-4.5625 17.00125 -4.5625 19.97125 -4.5625 23.03125 C-6.2125 23.03125 -7.8625 23.03125 -9.5625 23.03125 C-9.5625 18.74125 -9.5625 14.45125 -9.5625 10.03125 C-10.8825 9.70125 -12.2025 9.37125 -13.5625 9.03125 C-11.84949008 7.49224109 -10.11642512 5.97553131 -8.375 4.46875 C-7.41207031 3.62183594 -6.44914063 2.77492188 -5.45703125 1.90234375 C-2.5625 0.03125 -2.5625 0.03125 0 0 Z " fill="#1A7084" transform="translate(219.5625,80.96875)"/>
<path d="M0 0 C0.76376953 -0.01998047 1.52753906 -0.03996094 2.31445312 -0.06054688 C6.07169251 -0.05727687 7.96910791 0.00080051 11.0625 2.27734375 C12.5625 4.4375 12.5625 4.4375 13.125 7.4375 C12.5625 10.4375 12.5625 10.4375 10.5 12.59765625 C6.77461787 14.93097405 4.36821962 14.94006782 0 14.875 C-1.95099609 14.87306641 -1.95099609 14.87306641 -3.94140625 14.87109375 C-7.51729465 14.42760368 -9.03461376 14.08668208 -11.4375 11.4375 C-11.93359375 9.5 -11.93359375 9.5 -11.875 7.4375 C-11.87371094 6.756875 -11.87242187 6.07625 -11.87109375 5.375 C-10.50072782 -0.74843696 -5.28056183 -0.04877093 0 0 Z " fill="#886A89" transform="translate(230.4375,305.5625)"/>
<path d="M0 0 C2.71765949 1.3871387 3.90005139 2.63755781 6 5 C6.33 6.65 6.66 8.3 7 10 C-0.59 10 -8.18 10 -16 10 C-15.04719453 5.23597264 -14.63468743 3.80390995 -10.875 0.95703125 C-7.29440745 -0.87056286 -3.87416447 -0.86476886 0 0 Z " fill="#197185" transform="translate(187,95)"/>
<path d="M0 0 C9.9 0 19.8 0 30 0 C30.33 1.32 30.66 2.64 31 4 C30 5 30 5 27.22436523 5.11352539 C26.01466064 5.10828857 24.80495605 5.10305176 23.55859375 5.09765625 C22.25341797 5.09443359 20.94824219 5.09121094 19.60351562 5.08789062 C18.2148431 5.07953401 16.82617123 5.07106905 15.4375 5.0625 C14.04492344 5.05748666 12.65234519 5.05292347 11.25976562 5.04882812 C7.8398013 5.03699434 4.41992156 5.0205088 1 5 C0.67 3.35 0.34 1.7 0 0 Z " fill="#EFD1E2" transform="translate(46,82)"/>
<path d="M0 0 C9.9 0 19.8 0 30 0 C29.67 1.65 29.34 3.3 29 5 C19.43 5 9.86 5 0 5 C0 3.35 0 1.7 0 0 Z " fill="#F0D7E5" transform="translate(46,100)"/>
<path d="M0 0 C1.08667969 0.02707031 2.17335937 0.05414063 3.29296875 0.08203125 C4.54013672 0.13423828 4.54013672 0.13423828 5.8125 0.1875 C5.8125 1.8375 5.8125 3.4875 5.8125 5.1875 C1.8525 5.1875 -2.1075 5.1875 -6.1875 5.1875 C-6.1875 5.8475 -6.1875 6.5075 -6.1875 7.1875 C-2.2275 7.1875 1.7325 7.1875 5.8125 7.1875 C5.8125 8.5075 5.8125 9.8275 5.8125 11.1875 C3.68777424 11.24136629 1.56266348 11.28023071 -0.5625 11.3125 C-2.33753906 11.34730469 -2.33753906 11.34730469 -4.1484375 11.3828125 C-7.1875 11.1875 -7.1875 11.1875 -9.1875 9.1875 C-9.7388308 4.00499049 -9.7388308 4.00499049 -8.0546875 1.5078125 C-5.35316496 -0.40246913 -3.26526508 -0.10533113 0 0 Z " fill="#3D0C3E" transform="translate(229.1875,306.8125)"/>
<path d="M0 0 C2 2 2 2 2.25 5.4375 C2 9 2 9 0 12 C-3.5 12.3125 -3.5 12.3125 -7 12 C-9 10 -9 10 -9.3125 6.0625 C-9.23330121 3.50018618 -9.11578846 2.21227884 -7.875 -0.0625 C-5.00457974 -1.49771013 -3.01840612 -0.83487829 0 0 Z " fill="#1A6D82" transform="translate(186,81)"/>
<path d="M0 0 C9.9 0 19.8 0 30 0 C29.67 1.32 29.34 2.64 29 4 C19.43 4 9.86 4 0 4 C0 2.68 0 1.36 0 0 Z " fill="#FAF2F7" transform="translate(46,91)"/>
<path d="M0 0 C1.98 0 3.96 0 6 0 C6.33 1.65 6.66 3.3 7 5 C7.33 5 7.66 5 8 5 C8.99 5.33 9.98 5.66 11 6 C11 6.99 11 7.98 11 9 C11.66 9.66 12.32 10.32 13 11 C12.030625 10.979375 11.06125 10.95875 10.0625 10.9375 C7.12534105 10.64381501 7.12534105 10.64381501 6 12 C4.02 12 2.04 12 0 12 C0 8.04 0 4.08 0 0 Z " fill="#ECC2D9" transform="translate(105,282)"/>
<path d="M0 0 C0.99 0.33 1.98 0.66 3 1 C3 2.32 3 3.64 3 5 C4.32 5 5.64 5 7 5 C7.33 4.01 7.66 3.02 8 2 C7.67 3.98 7.34 5.96 7 8 C5.68 8 4.36 8 3 8 C3 8.66 3 9.32 3 10 C2.01 10 1.02 10 0 10 C0 6.7 0 3.4 0 0 Z " fill="#F2D6E5" transform="translate(131,286)"/>
<path d="M0 0 C4.70588235 0.70588235 4.70588235 0.70588235 6 2 C6.1875 4.4375 6.1875 4.4375 6 7 C5.34 7.66 4.68 8.32 4 9 C1.875 8.625 1.875 8.625 0 8 C0 7.34 0 6.68 0 6 C-0.185625 5.154375 -0.37125 4.30875 -0.5625 3.4375 C-0.706875 2.633125 -0.85125 1.82875 -1 1 C-0.67 0.67 -0.34 0.34 0 0 Z " fill="#E3A3C6" transform="translate(115,285)"/>
<path d="M0 0 C1.32 0.99 2.64 1.98 4 3 C2.25 6.875 2.25 6.875 0 8 C0 7.34 0 6.68 0 6 C-3.63 5.67 -7.26 5.34 -11 5 C-11 4.34 -11 3.68 -11 3 C-5.555 2.505 -5.555 2.505 0 2 C0 1.34 0 0.68 0 0 Z " fill="#A58EA5" transform="translate(234,309)"/>
<path d="M0 0 C6.39075249 -0.36174071 6.39075249 -0.36174071 9 1.1875 C10 3 10 3 9.6875 5.6875 C9.460625 6.450625 9.23375 7.21375 9 8 C8.34 7.67 7.68 7.34 7 7 C5.67139075 6.64830932 4.33841672 6.31229724 3 6 C2.814375 5.071875 2.814375 5.071875 2.625 4.125 C2.12802644 1.80879168 2.12802644 1.80879168 0 0 Z " fill="#DD8EB9" transform="translate(131,285)"/>
<path d="M0 0 C1.32 0 2.64 0 4 0 C4 3.96 4 7.92 4 12 C3.01 12 2.02 12 1 12 C0.67 8.04 0.34 4.08 0 0 Z " fill="#EDC3D9" transform="translate(164,282)"/>
<path d="M0 0 C1.65 0 3.3 0 5 0 C4.01 0.33 3.02 0.66 2 1 C2 1.99 2 2.98 2 4 C2.99 4.33 3.98 4.66 5 5 C4.01 5 3.02 5 2 5 C2 6.32 2 7.64 2 9 C2.99 9.33 3.98 9.66 5 10 C3.35 10 1.7 10 0 10 C0 6.7 0 3.4 0 0 Z " fill="#FBF2F7" transform="translate(105,283)"/>
<path d="M0 0 C1.2065625 0.0309375 1.2065625 0.0309375 2.4375 0.0625 C2.1075 2.0425 1.7775 4.0225 1.4375 6.0625 C0.4475 6.0625 -0.5425 6.0625 -1.5625 6.0625 C-1.5625 4.7425 -1.5625 3.4225 -1.5625 2.0625 C-2.2225 1.7325 -2.8825 1.4025 -3.5625 1.0625 C-2.5625 0.0625 -2.5625 0.0625 0 0 Z " fill="#D982B1" transform="translate(144.5625,284.9375)"/>
<path d="M0 0 C1.2065625 0.0309375 1.2065625 0.0309375 2.4375 0.0625 C2.7675 1.0525 3.0975 2.0425 3.4375 3.0625 C1.7875 3.0625 0.1375 3.0625 -1.5625 3.0625 C-1.8925 4.0525 -2.2225 5.0425 -2.5625 6.0625 C-2.94468767 4.40635343 -3.27645102 2.73792976 -3.5625 1.0625 C-2.5625 0.0625 -2.5625 0.0625 0 0 Z " fill="#EBBDD6" transform="translate(153.5625,284.9375)"/>
<path d="M0 0 C0.66 0 1.32 0 2 0 C2 1.65 2 3.3 2 5 C2.99 5.33 3.98 5.66 5 6 C3.35 6 1.7 6 0 6 C-0.38218767 4.34385343 -0.71395102 2.67542976 -1 1 C-0.67 0.67 -0.34 0.34 0 0 Z " fill="#F5E0EB" transform="translate(141,287)"/>
<path d="M0 0 C0.33 0.99 0.66 1.98 1 3 C0.67 3.66 0.34 4.32 0 5 C-1.65 4.67 -3.3 4.34 -5 4 C-5 3.01 -5 2.02 -5 1 C-3.35 0.67 -1.7 0.34 0 0 Z " fill="#CD5798" transform="translate(157,287)"/>
<path d="M0 0 C2 1 2 1 2 1 Z " fill="#FFFFFF" transform="translate(27,512)"/>
</svg>
